<svg width="42" height="42" viewBox="0 0 42 42" fill="none" xmlns="http://www.w3.org/2000/svg">
<rect width="42" height="42" rx="8" fill="#E1EAFE"/>
<path d="M23.5 25.5L27.216 26.6177C28.6034 27.0423 29.6341 28.1552 29.9763 29.5099C30.1115 30.0456 29.6489 30.5 29.0936 30.5H12.9064C12.3511 30.5 11.8885 30.0456 12.0238 29.5099C12.3659 28.1552 13.3966 27.0423 14.784 26.6177L18.5 25.5V23.5622C16.7192 22.1684 15.5 20.4998 15.5 16.9167C15.5 13.3268 17.4547 11.4999 20.4923 11.4999C22.6433 11.4999 23.5385 12.4999 23.5385 12.4999C26.0769 12.4999 26.5 14.5971 26.5 16.9167C26.5 20.4998 25.2808 22.1684 23.5 23.5622V25.5Z" stroke="#4A4DE1" stroke-width="1.5" stroke-linejoin="round"/>
</svg>
